# xmcd
#
# Track frame offsets:
#	150
#	15484
#	38205
#	55500
#	74923
#
# Disc length: 1205 seconds
#
# Revision: 1
# Processed by: cddbd v1.5.1PL0 Copyright (c) Steve Scherf et al.
# Submitted via: audiograbber 1.83.01
#
DISCID=3d04b305
DTITLE=Tia Sprocket - Limited Edition
DYEAR=2005
DGENRE=Rock and Blues
TTITLE0=Vision
TTITLE1=Earth
TTITLE2=Train
TTITLE3=Bad Seed
TTITLE4=90,000 Volts
EXTD=Mastered by Thom Bone (2005)
EXTT0=
EXTT1=
EXTT2=
EXTT3=
EXTT4=
PLAYORDER=
